HIERARCHY
ROOT hip
{
  OFFSET 0 0 0
  CHANNELS 6 Xposition Yposition Zposition Zrotation Yrotation Xrotation
  JOINT abdomen
  {
    OFFSET 0 20.6881 -0.73152
    CHANNELS 3 Zrotation Xrotation Yrotation
    JOINT chest
    {
      OFFSET 0 11.7043 -0.48768
      CHANNELS 3 Zrotation Xrotation Yrotation
      JOINT neck
      {
        OFFSET 0 22.1894 -2.19456
        CHANNELS 3 Zrotation Xrotation Yrotation
        JOINT head
        {
          OFFSET -0.24384 7.07133 1.2192
          CHANNELS 3 Zrotation Xrotation Yrotation
          JOINT leftEye
          {
            OFFSET 4.14528 8.04674 8.04672
            CHANNELS 3 Zrotation Xrotation Yrotation
            End Site
            {
              OFFSET 1 0 0
            }
          }
          JOINT rightEye
          {
            OFFSET -3.6576 8.04674 8.04672
            CHANNELS 3 Zrotation Xrotation Yrotation
            End Site
            {
              OFFSET 1 0 0
            }
          }
        }
      }
      JOINT rCollar
      {
        OFFSET -2.68224 19.2634 -4.8768
        CHANNELS 3 Zrotation Xrotation Yrotation
        JOINT rShldr
        {
          OFFSET -8.77824 -1.95073 1.46304
          CHANNELS 3 Zrotation Xrotation Yrotation
          JOINT rForeArm
          {
            OFFSET -28.1742 -1.7115 0.48768
            CHANNELS 3 Zrotation Xrotation Yrotation
            JOINT rHand
            {
              OFFSET -22.5879 0.773209 7.07136
              CHANNELS 3 Zrotation Xrotation Yrotation
              JOINT rThumb1
              {
                OFFSET -1.2192 -0.487915 3.41376
                CHANNELS 3 Zrotation Xrotation Yrotation
                JOINT rThumb2
                {
                  OFFSET -3.37035 -0.52449 3.41376
                  CHANNELS 3 Zrotation Xrotation Yrotation
                  End Site
                  {
                    OFFSET -1.78271 -1.18214 1.43049
                  }
                }
              }
              JOINT rIndex1
              {
                OFFSET -7.75947 0.938293 5.60832
                CHANNELS 3 Zrotation Xrotation Yrotation
                JOINT rIndex2
                {
                  OFFSET -2.54057 -0.884171 1.56538
                  CHANNELS 3 Zrotation Xrotation Yrotation
                  End Site
                  {
                    OFFSET -1.62519 -0.234802 1.16502
                  }
                }
              }
              JOINT rMid1
              {
                OFFSET -8.24714 1.18213 3.41376
                CHANNELS 3 Zrotation Xrotation Yrotation
                JOINT rMid2
                {
                  OFFSET -3.10165 -0.590103 1.0647
                  CHANNELS 3 Zrotation Xrotation Yrotation
                  End Site
                  {
                    OFFSET -2.48547 -0.328903 0.83742
                  }
                }
              }
              JOINT rRing1
              {
                OFFSET -8.82822 0.546677 1.51678
                CHANNELS 3 Zrotation Xrotation Yrotation
                JOINT rRing2
                {
                  OFFSET -2.60934 -0.819778 -0.0198488
                  CHANNELS 3 Zrotation Xrotation Yrotation
                  End Site
                  {
                    OFFSET -2.33842 -0.294052 0.168128
                  }
                }
              }
              JOINT rPinky1
              {
                OFFSET -8.27202 -0.0477905 -0.4584
                CHANNELS 3 Zrotation Xrotation Yrotation
                JOINT rPinky2
                {
                  OFFSET -1.82734 -0.647385 -0.700984
                  CHANNELS 3 Zrotation Xrotation Yrotation
                  End Site
                  {
                    OFFSET -1.69225 -0.51767 -0.607171
                  }
                }
              }
            }
          }
        }
      }
      JOINT lCollar
      {
        OFFSET 2.68224 19.2634 -4.8768
        CHANNELS 3 Zrotation Xrotation Yrotation
        JOINT lShldr
        {
          OFFSET 8.77824 -1.95073 1.46304
          CHANNELS 3 Zrotation Xrotation Yrotation
          JOINT lForeArm
          {
            OFFSET 28.1742 -1.7115 0.48768
            CHANNELS 3 Zrotation Xrotation Yrotation
            JOINT lHand
            {
              OFFSET 22.5879 0.773209 7.07136
              CHANNELS 3 Zrotation Xrotation Yrotation
              JOINT lThumb1
              {
                OFFSET 1.2192 -0.487915 3.41376
                CHANNELS 3 Zrotation Xrotation Yrotation
                JOINT lThumb2
                {
                  OFFSET 3.37035 -0.52449 3.41376
                  CHANNELS 3 Zrotation Xrotation Yrotation
                  End Site
                  {
                    OFFSET 1.78271 -1.18214 1.43049
                  }
                }
              }
              JOINT lIndex1
              {
                OFFSET 7.75947 0.938293 5.60832
                CHANNELS 3 Zrotation Xrotation Yrotation
                JOINT lIndex2
                {
                  OFFSET 2.54057 -0.884171 1.56538
                  CHANNELS 3 Zrotation Xrotation Yrotation
                  End Site
                  {
                    OFFSET 1.62519 -0.234802 1.16502
                  }
                }
              }
              JOINT lMid1
              {
                OFFSET 8.24714 1.18213 3.41376
                CHANNELS 3 Zrotation Xrotation Yrotation
                JOINT lMid2
                {
                  OFFSET 3.10165 -0.590103 1.0647
                  CHANNELS 3 Zrotation Xrotation Yrotation
                  End Site
                  {
                    OFFSET 2.48547 -0.328903 0.83742
                  }
                }
              }
              JOINT lRing1
              {
                OFFSET 8.82822 0.546677 1.51678
                CHANNELS 3 Zrotation Xrotation Yrotation
                JOINT lRing2
                {
                  OFFSET 2.60934 -0.819778 -0.0198488
                  CHANNELS 3 Zrotation Xrotation Yrotation
                  End Site
                  {
                    OFFSET 2.33842 -0.294052 0.168128
                  }
                }
              }
              JOINT lPinky1
              {
                OFFSET 8.27202 -0.0477905 -0.4584
                CHANNELS 3 Zrotation Xrotation Yrotation
                JOINT lPinky2
                {
                  OFFSET 1.82734 -0.647385 -0.700984
                  CHANNELS 3 Zrotation Xrotation Yrotation
                  End Site
                  {
                    OFFSET 1.69225 -0.51767 -0.607171
                  }
                }
              }
            }
          }
        }
      }
    }
  }
  JOINT rButtock
  {
    OFFSET -8.77824 4.35084 1.2192
    CHANNELS 3 Zrotation Xrotation Yrotation
    JOINT rThigh
    {
      OFFSET 0 -1.70687 -2.19456
      CHANNELS 3 Zrotation Xrotation Yrotation
      JOINT rShin
      {
        OFFSET 0 -36.8199 0.73152
        CHANNELS 3 Zrotation Xrotation Yrotation
        JOINT rFoot
        {
          OFFSET 0.73152 -45.1104 -5.12064
          CHANNELS 3 Zrotation Xrotation Yrotation
          End Site
          {
            OFFSET -1.1221 -3.69964 12.103
          }
        }
      }
    }
  }
  JOINT lButtock
  {
    OFFSET 8.77824 4.35084 1.2192
    CHANNELS 3 Zrotation Xrotation Yrotation
    JOINT lThigh
    {
      OFFSET 0 -1.70687 -2.19456
      CHANNELS 3 Zrotation Xrotation Yrotation
      JOINT lShin
      {
        OFFSET 0 -36.8199 0.73152
        CHANNELS 3 Zrotation Xrotation Yrotation
        JOINT lFoot
        {
          OFFSET -0.73152 -45.1104 -5.12064
          CHANNELS 3 Zrotation Xrotation Yrotation
          End Site
          {
            OFFSET 1.1221 -3.69964 12.103
          }
        }
      }
    }
  }
}
MOTION
Frames:	4
Frame Time:	0.03333
-29.9456 82.6507 -37.2779 -20.80377 82.799152 -11.620147 32.594965 61.641414 143.99782 -134.736017 9.124561 -8.383535 148.580365 -13.225928 -106.374494 3.56916 64.243871 -99.856243 -26.272292 -7.277284 30.484997 20.799529 -12.047261 -59.793784 -86.006261 -13.244636 -93.002956 -130.197069 69.113178 105.763213 -6.100957 77.36989 137.514369 -2.376294 -6.117375 -37.019997 -8.74578 5.51693 10.954686 127.125551 56.437675 -66.279571 -5.996059 -70.256829 -90.368917 178.598248 -69.162354 176.822374 -24.752993 -39.402824 -104.913663 -12.061438 -32.005658 -17.697085 74.005944 27.847095 -56.445459 -38.29125 36.848578 25.326298 -86.420975 27.37294 -91.234164 -69.684495 36.84233 -107.081423 107.066733 -14.449617 116.486209 -87.572166 -83.68752 -94.954697 -0.21502 3.602635 -89.329401 -25.926498 1.530709 9.218795 20.626594 62.054756 -30.244721 44.529764 -58.094968 38.366954 4.811327 -47.758569 100.678494 -100.587995 23.465017 2.873245 103.049269 58.40249 -142.679667 -7.099811 45.078806 -64.9597 -67.98273 -1.256355 36.308843 -87.173345 -25.819625 -131.737902 -8.863954 53.334191 15.067898 96.850783 6.449465 152.766309 -13.841063 4.685998 19.55365 45.813922 -48.346113 -41.571177 -78.220176 23.73994 -19.166512 78.191023 25.238652 63.261969 1.613093 10.748759 -8.586585 -33.9285 -52.780814 -40.189318 -68.008447 62.310488 30.569803 -134.909733 -31.492195 -132.59336
-30.0776 77.6745 -37.227700000000006 -157.496009 84.95929 -148.47672 9.181913 49.719887 16.464316 159.953595 -29.665974 -161.11876 -161.385583 -1.737914 -86.742392 21.796742 14.512764 -109.719394 -15.595898 -3.870247 27.718217 12.035161 -3.983397 -36.514922 -31.648499 7.749169 -68.020118 -69.70791 -64.041115 -50.388683 17.934962 5.186529 -161.793091 -141.547822 28.878582 101.78219 33.410884 -0.594001 -2.848974 -41.809675 1.646962 -142.378577 -113.091252 -23.389696 -173.032206 -84.682105 -0.269458 12.993525 -49.390304 -30.910006 -107.901349 -91.258633 69.449876 47.986009 87.466253 34.021581 -84.309681 -5.906747 -45.259779 0.354503 -135.072651 17.596637 -61.670571 -164.375645 15.435626 -56.869344 -144.6316 34.929451 129.526552 150.294481 20.2825 -154.666063 105.222418 -39.94959 78.887826 0.750747 -21.696238 -15.815674 -52.29996 6.331303 22.305894 150.358364 -29.865366 -37.39717 43.370314 52.380028 -95.566498 -18.495584 28.359061 150.475474 -65.566573 13.18513 -25.741371 34.755184 -60.933173 75.487787 -74.737512 23.811214 60.334842 -6.89456 -51.589204 -123.607874 97.11849 39.606758 -148.288691 2.024955 11.997916 -106.624963 -110.956461 28.635723 -41.674078 158.222205 13.292932 -119.920942 -85.363102 -35.353815 -65.447751 61.589923 18.484268 92.040716 -56.97336 40.943294 -36.010135 82.252903 -36.123159 162.546372 87.790916 -29.5367 3.384637 78.050866 -1.636836 51.675212
-29.9161 74.8259 -37.575900000000004 -175.138167 73.42966 -166.324546 1.680313 32.491681 165.720659 -150.664435 26.803208 -22.098974 -120.542116 -47.73931 67.418865 15.390031 43.504585 97.993132 -9.462184 -0.861214 10.377733 -2.688543 0.511226 -21.528775 159.535375 10.880861 -138.754869 -61.492731 54.137025 112.780732 119.414464 -61.34483 -117.292096 -35.082573 3.521609 -10.262364 -2.432696 47.973964 1.742707 -3.214171 -42.664252 -126.432737 37.543129 52.902344 -55.165912 -105.283122 11.84752 162.634764 -19.924842 -36.799153 -89.435883 -159.967084 74.839833 99.583138 -14.929249 18.833218 -62.914779 34.499672 -8.261954 11.130328 -141.055255 9.386297 -65.069783 77.492195 30.645936 -79.01833 -89.73797 48.271529 107.102354 -12.251111 17.381107 -20.196401 0.438394 26.754634 -38.15106 28.455426 21.251234 -26.665887 -149.737863 -70.851243 -21.286142 -12.941811 -47.676421 -14.729686 -52.292157 47.296078 -17.493922 80.682334 52.200749 83.525151 157.00569 -43.814923 -74.638131 -153.305959 -56.820948 -177.51723 -46.517628 69.093524 35.384063 112.097461 5.03256 -67.710954 151.970555 -57.456628 -146.686506 67.444293 -40.270821 -61.855731 -90.906104 16.408399 -27.472287 131.330465 5.413464 -0.0 -49.737543 70.269979 150.116372 -57.253905 39.359763 -136.4466 3.183554 10.051962 -17.675431 -19.678989 -54.347395 -16.431973 -65.241976 65.384288 -17.368298 88.182929 69.24986 118.563324
-29.521399999999996 74.6302 -38.6913 -178.837828 60.580806 -169.78209 -1.633561 26.411005 -180.0 -165.800878 39.729476 -6.606844 -150.449851 -71.547818 -26.521712 -87.540177 58.188993 -134.161881 -26.830581 -1.236559 5.181061 -23.103627 2.17728 -10.6231 -35.235547 3.126527 -55.637065 -40.670652 -19.706739 -20.631752 3.896395 -21.798056 -144.329592 -146.240757 14.895986 122.385155 -35.186139 79.210471 14.145173 73.205384 -78.959442 -22.727318 114.496184 87.308369 -112.929796 -75.472188 0.526945 141.207281 -155.47756 37.488709 -158.387724 8.769758 43.712177 51.290162 -86.894392 -9.511103 -77.82368 -61.838136 -49.64987 -113.620342 -124.318321 7.381353 -72.394806 13.509397 28.427842 -45.132571 -16.86064 36.160154 66.897106 144.757603 -1.479276 -174.799773 -129.708952 -13.890323 -171.893896 129.579475 50.980524 -123.769899 -174.60273 -65.664742 -36.632005 -135.395144 -17.646974 -108.661477 57.526339 -54.519301 -146.632205 -86.112983 -66.403089 105.657725 -56.249017 18.762522 -48.637324 70.097568 -58.835826 166.536486 -8.893138 13.171097 3.838134 -83.316333 22.055754 -18.027753 -45.85064 16.054772 -81.563019 151.162631 22.295275 27.237494 -5.841984 12.640712 25.058356 33.929051 -51.829591 -163.532907 21.56861 -79.034332 129.366533 159.840261 0.244887 22.689922 -46.964657 34.654747 -45.88356 68.733961 -28.667524 52.564672 49.97634 74.255768 45.067901 -108.752714 -13.035163 -54.41649
